<?xml version="1.0" encoding="UTF-8" standalone="no"?>
<!DOCTYPE svg PUBLIC "-//W3C//DTD SVG 1.1//EN" "http://www.w3.org/Graphics/SVG/1.1/DTD/svg11.dtd">
<svg width="100%" height="100%" viewBox="0 0 110 111" version="1.1" xmlns="http://www.w3.org/2000/svg" xmlns:xlink="http://www.w3.org/1999/xlink" xml:space="preserve" xmlns:serif="http://www.serif.com/" style="fill-rule:evenodd;clip-rule:evenodd;stroke-linecap:round;stroke-linejoin:round;stroke-miterlimit:1.5;">
    <g id="Artboard1" transform="matrix(0.856619,0,0,0.863426,0,0)">
        <rect x="0" y="0" width="128" height="128" style="fill:none;"/>
        <g transform="matrix(1.16111,-0.119908,0.12086,1.15195,-6.30229,6.93723)">
            <rect x="40" y="40" width="60" height="60" style="fill:white;"/>
            <clipPath id="_clip1">
                <rect x="40" y="40" width="60" height="60"/>
            </clipPath>
            <g clip-path="url(#_clip1)">
                <g transform="matrix(0.740104,0,0,0.741844,5.91947,5.04403)">
                    <g transform="matrix(1.16738,0,0,1.15818,0,0)">
                        <path d="M40,110.518L109.834,40.685" style="fill:none;stroke:rgb(198,198,198);stroke-width:1.74px;"/>
                    </g>
                    <g transform="matrix(1.16738,0,0,1.15818,11.6738,0)">
                        <path d="M40,110.518L109.834,40.685" style="fill:none;stroke:rgb(198,198,198);stroke-width:1.74px;"/>
                    </g>
                    <g transform="matrix(1.16738,0,0,1.15818,23.3476,0)">
                        <path d="M40,110.518L109.834,40.685" style="fill:none;stroke:rgb(198,198,198);stroke-width:1.74px;"/>
                    </g>
                    <g transform="matrix(1.16738,0,0,1.15818,35.0214,0)">
                        <path d="M40,110.518L109.834,40.685" style="fill:none;stroke:rgb(198,198,198);stroke-width:1.74px;"/>
                    </g>
                    <g transform="matrix(1.16738,0,0,1.15818,46.6952,0)">
                        <path d="M40,110.518L109.834,40.685" style="fill:none;stroke:rgb(198,198,198);stroke-width:1.74px;"/>
                    </g>
                    <g transform="matrix(1.16738,0,0,1.15818,58.369,0)">
                        <path d="M40,110.518L109.834,40.685" style="fill:none;stroke:rgb(198,198,198);stroke-width:1.74px;"/>
                    </g>
                    <g transform="matrix(1.16738,0,0,1.15818,70.0428,0)">
                        <path d="M40,110.518L109.834,40.685" style="fill:none;stroke:rgb(198,198,198);stroke-width:1.74px;"/>
                    </g>
                    <g transform="matrix(1.16738,0,0,1.15818,-11.6738,0)">
                        <path d="M40,110.518L109.834,40.685" style="fill:none;stroke:rgb(198,198,198);stroke-width:1.74px;"/>
                    </g>
                    <g transform="matrix(1.16738,0,0,1.15818,-23.3476,0)">
                        <path d="M40,110.518L109.834,40.685" style="fill:none;stroke:rgb(198,198,198);stroke-width:1.74px;"/>
                    </g>
                    <g transform="matrix(1.16738,0,0,1.15818,-35.0214,0)">
                        <path d="M40,110.518L109.834,40.685" style="fill:none;stroke:rgb(198,198,198);stroke-width:1.74px;"/>
                    </g>
                    <g transform="matrix(1.16738,0,0,1.15818,-46.6952,0)">
                        <path d="M40,110.518L109.834,40.685" style="fill:none;stroke:rgb(198,198,198);stroke-width:1.74px;"/>
                    </g>
                    <g transform="matrix(1.16738,0,0,1.15818,-58.369,0)">
                        <path d="M40,110.518L109.834,40.685" style="fill:none;stroke:rgb(198,198,198);stroke-width:1.74px;"/>
                    </g>
                    <g transform="matrix(1.16738,0,0,1.15818,-70.0428,0)">
                        <path d="M40,110.518L109.834,40.685" style="fill:none;stroke:rgb(198,198,198);stroke-width:1.74px;"/>
                    </g>
                    <g transform="matrix(1.16738,0,0,1.15818,-81.7166,0)">
                        <path d="M40,110.518L109.834,40.685" style="fill:none;stroke:rgb(198,198,198);stroke-width:1.74px;"/>
                    </g>
                </g>
            </g>
        </g>
        <g transform="matrix(1.74166,-0.179861,0.181291,1.72793,-12.7121,1.777)">
            <rect x="10" y="10" width="20" height="20" style="fill:white;stroke:black;stroke-width:0.67px;"/>
        </g>
        <g transform="matrix(1.74166,-0.179861,0.181291,1.72793,22.1211,-1.82023)">
            <rect x="10" y="10" width="20" height="20" style="fill:white;stroke:black;stroke-width:0.67px;"/>
        </g>
        <g transform="matrix(1.74166,-0.179861,0.181291,1.72793,-9.08632,36.3356)">
            <rect x="10" y="10" width="20" height="20" style="fill:white;stroke:black;stroke-width:0.67px;"/>
        </g>
        <g transform="matrix(1.74166,-0.179861,0.181291,1.72793,25.7469,32.7384)">
            <rect x="10" y="10" width="20" height="20" style="fill:none;stroke:black;stroke-width:0.67px;"/>
        </g>
        <g transform="matrix(1.74166,-0.179861,0.181291,1.72793,-5.46051,70.8942)">
            <rect x="10" y="10" width="20" height="20" style="fill:white;stroke:black;stroke-width:0.67px;"/>
        </g>
        <g transform="matrix(1.74166,-0.179861,0.181291,1.72793,29.3727,67.297)">
            <rect x="10" y="10" width="20" height="20" style="fill:none;stroke:black;stroke-width:0.67px;"/>
        </g>
        <g transform="matrix(1.74166,-0.179861,0.181291,1.72793,56.9543,-5.41746)">
            <rect x="10" y="10" width="20" height="20" style="fill:white;stroke:black;stroke-width:0.67px;"/>
        </g>
        <g transform="matrix(1.74166,-0.179861,0.181291,1.72793,60.5801,29.1412)">
            <rect x="10" y="10" width="20" height="20" style="fill:none;stroke:black;stroke-width:0.67px;"/>
        </g>
        <g transform="matrix(1.74166,-0.179861,0.181291,1.72793,64.2059,63.6998)">
            <rect x="10" y="10" width="20" height="20" style="fill:none;stroke:black;stroke-width:0.67px;"/>
        </g>
        <g transform="matrix(1.16111,-0.119908,0.12086,1.15195,-6.6441,3.67936)">
            <path d="M26.789,27.828L32.586,33.641L30.789,35.422L24.992,29.625L19.195,35.422L17.398,33.641L23.195,27.828L17.398,22.031L19.195,20.234L24.992,26.031L30.805,20.234L32.602,22.016L26.789,27.828Z" style="fill-rule:nonzero;"/>
        </g>
        <g transform="matrix(1.16111,-0.119908,0.12086,1.15195,-3.01829,38.238)">
            <path d="M26.789,27.828L32.586,33.641L30.789,35.422L24.992,29.625L19.195,35.422L17.398,33.641L23.195,27.828L17.398,22.031L19.195,20.234L24.992,26.031L30.805,20.234L32.602,22.016L26.789,27.828Z" style="fill-rule:nonzero;"/>
        </g>
        <g transform="matrix(1.16111,-0.119908,0.12086,1.15195,28.1835,0.028181)">
            <path d="M26.789,27.828L32.586,33.641L30.789,35.422L24.992,29.625L19.195,35.422L17.398,33.641L23.195,27.828L17.398,22.031L19.195,20.234L24.992,26.031L30.805,20.234L32.602,22.016L26.789,27.828Z" style="fill-rule:nonzero;"/>
        </g>
        <g transform="matrix(1.16111,-0.119908,0.12086,1.15195,-9.50721,4.35711)">
            <circle cx="57.5" cy="57.5" r="7.5" style="fill:none;stroke:black;stroke-width:2px;"/>
        </g>
        <g transform="matrix(1.16111,-0.119908,0.12086,1.15195,24.7455,0.819838)">
            <circle cx="57.5" cy="57.5" r="7.5" style="fill:none;stroke:black;stroke-width:2px;"/>
        </g>
        <g transform="matrix(1.16111,-0.119908,0.12086,1.15195,28.3713,35.3784)">
            <circle cx="57.5" cy="57.5" r="7.5" style="fill:none;stroke:black;stroke-width:2px;"/>
        </g>
        <g transform="matrix(1.16111,-0.119908,0.12086,1.15195,-5.8814,38.9157)">
            <circle cx="57.5" cy="57.5" r="7.5" style="fill:none;stroke:black;stroke-width:2px;"/>
        </g>
    </g>
</svg>
